<svg width="24" height="24" viewBox="0 0 24 24" fill="none" xmlns="http://www.w3.org/2000/svg">
<rect width="24" height="24" rx="6" fill="white"/>
<rect opacity="0.01" x="3" y="2" width="20" height="20" fill="black"/>
<path fill-rule="evenodd" clip-rule="evenodd" d="M15.7839 8.78569C15.7839 8.78569 19.887 8.77084 19.9746 8.78569C21.4251 9.031 21.8401 10.9987 20.5987 11.7937C21.0201 12.5389 20.7741 13.5094 20.0546 13.9702C20.4759 14.7154 20.2299 15.6859 19.5104 16.1467C20.114 17.2141 19.312 18.5807 18.0883 18.58H9.01956V9.8739C9.01956 9.8739 11.6439 7.49695 12.4887 6.67302C12.9732 6.20046 13.2861 5.57088 13.4117 4.9087C13.4262 4.8322 13.4352 4.75453 13.4442 4.677C13.4659 4.48995 13.4875 4.30381 13.5858 4.13735C13.7067 3.93263 13.9096 3.77983 14.1404 3.72175C14.5428 3.62045 15.042 3.71632 15.3992 3.9072C16.4965 4.4934 16.7525 6.14226 16.357 7.22214L15.7839 8.78569ZM5.21064 8.78569H7.38714C7.68633 8.78569 7.93128 9.02937 7.93128 9.32979V19.1241C7.93128 19.4244 7.68743 19.6681 7.38714 19.6681H5.21064C4.91035 19.6681 4.6665 19.4244 4.6665 19.1241V9.32979C4.6665 9.02937 4.91143 8.78569 5.21064 8.78569Z" fill="#0EAD69"/>
</svg>
